<svg width="860" height="106" viewBox="0 0 860 106" fill="none" xmlns="http://www.w3.org/2000/svg">
<path d="M10.5762 104H0.595703V1.46094H11.8066V44.8691C14.9967 41.5423 18.7793 38.9447 23.1543 37.0762C27.5293 35.2077 32.2917 34.2734 37.4414 34.2734C44.1862 34.2734 50.2018 35.8229 55.4883 38.9219C60.7747 42.0208 64.9447 46.2591 67.998 51.6367C71.097 56.9688 72.6465 63.0299 72.6465 69.8203C72.6465 76.5651 71.097 82.6263 67.998 88.0039C64.9447 93.3815 60.7747 97.6198 55.4883 100.719C50.2018 103.818 44.1862 105.367 37.4414 105.367C32.0638 105.367 27.1191 104.365 22.6074 102.359C18.1413 100.309 14.3132 97.5286 11.123 94.0195L10.5762 104ZM36.4844 95.25C41.1784 95.25 45.3711 94.1562 49.0625 91.9688C52.7995 89.7357 55.7389 86.7051 57.8809 82.877C60.0684 79.0488 61.1621 74.7194 61.1621 69.8887C61.1621 65.0124 60.0684 60.6602 57.8809 56.832C55.7389 52.9583 52.7995 49.9049 49.0625 47.6719C45.3711 45.4388 41.1784 44.3223 36.4844 44.3223C32.0182 44.3223 27.9622 45.3477 24.3164 47.3984C20.7161 49.4492 17.7995 52.252 15.5664 55.8066C13.3789 59.3613 12.1257 63.3945 11.8066 67.9062V71.666C12.1257 76.1777 13.3789 80.2109 15.5664 83.7656C17.7539 87.3203 20.6478 90.123 24.248 92.1738C27.8939 94.2246 31.9727 95.25 36.4844 95.25ZM94.248 14.0391C92.334 14.0391 90.7161 13.3783 89.3945 12.0566C88.1185 10.6895 87.4805 9.04883 87.4805 7.13477C87.4805 5.26628 88.1185 3.67122 89.3945 2.34961C90.7161 1.02799 92.334 0.367188 94.248 0.367188C96.2077 0.367188 97.8483 1.02799 99.1699 2.34961C100.492 3.67122 101.152 5.26628 101.152 7.13477C101.152 9.04883 100.492 10.6895 99.1699 12.0566C97.8483 13.3783 96.2077 14.0391 94.248 14.0391ZM99.8535 104H88.6426V35.6406H99.8535V104ZM177.031 104H115.986V97.7793L158.301 45.7578H118.037V35.6406H175.322V41.041L132.393 93.8828H177.031V104ZM257.49 104H247.51L246.895 94.0195C243.75 97.5286 239.922 100.309 235.41 102.359C230.898 104.365 225.977 105.367 220.645 105.367C213.9 105.367 207.861 103.818 202.529 100.719C197.197 97.6198 192.982 93.3815 189.883 88.0039C186.829 82.6263 185.303 76.5651 185.303 69.8203C185.303 63.0299 186.829 56.9688 189.883 51.6367C192.982 46.2591 197.197 42.0208 202.529 38.9219C207.861 35.8229 213.9 34.2734 220.645 34.2734C225.794 34.2734 230.557 35.2077 234.932 37.0762C239.352 38.9447 243.135 41.5423 246.279 44.8691V1.46094H257.49V104ZM221.602 95.25C226.159 95.25 230.306 94.2018 234.043 92.1055C237.78 89.9635 240.742 87.0697 242.93 83.4238C245.163 79.7324 246.279 75.5625 246.279 70.9141V68.5898C246.279 63.9414 245.163 59.7943 242.93 56.1484C240.742 52.457 237.78 49.5632 234.043 47.4668C230.306 45.3704 226.159 44.3223 221.602 44.3223C216.862 44.3223 212.624 45.4388 208.887 47.6719C205.15 49.9049 202.188 52.9355 200 56.7637C197.858 60.5918 196.787 64.9212 196.787 69.752C196.787 74.5827 197.858 78.9349 200 82.8086C202.188 86.6367 205.15 89.6673 208.887 91.9004C212.624 94.1335 216.862 95.25 221.602 95.25ZM338.633 95.5918C330.156 102.109 320.814 105.367 310.605 105.367C303.496 105.367 297.116 103.772 291.465 100.582C285.814 97.3919 281.348 93.0625 278.066 87.5938C274.831 82.0794 273.213 75.8587 273.213 68.9316C273.213 62.278 274.717 56.3535 277.725 51.1582C280.732 45.9173 284.857 41.793 290.098 38.7852C295.339 35.7773 301.286 34.2734 307.939 34.2734C314.775 34.2734 320.791 35.9141 325.986 39.1953C331.227 42.4766 335.306 47.0339 338.223 52.8672C341.139 58.7005 342.598 65.4453 342.598 73.1016V75.2891H285.381C286.201 79.2995 287.842 82.7858 290.303 85.748C292.809 88.7103 295.908 91.0117 299.6 92.6523C303.291 94.293 307.415 95.1133 311.973 95.1133C319.811 95.1133 326.966 92.5384 333.438 87.3887L338.633 95.5918ZM284.971 65.7188H332.002C331.501 61.4805 330.179 57.7891 328.037 54.6445C325.941 51.4544 323.206 48.9707 319.834 47.1934C316.507 45.416 312.747 44.5273 308.555 44.5273C304.316 44.5273 300.488 45.416 297.07 47.1934C293.698 48.9707 290.941 51.4544 288.799 54.6445C286.702 57.7891 285.426 61.4805 284.971 65.7188ZM368.369 104H358.389V1.46094H369.6V44.8691C372.79 41.5423 376.572 38.9447 380.947 37.0762C385.322 35.2077 390.085 34.2734 395.234 34.2734C401.979 34.2734 407.995 35.8229 413.281 38.9219C418.568 42.0208 422.738 46.2591 425.791 51.6367C428.89 56.9688 430.439 63.0299 430.439 69.8203C430.439 76.5651 428.89 82.6263 425.791 88.0039C422.738 93.3815 418.568 97.6198 413.281 100.719C407.995 103.818 401.979 105.367 395.234 105.367C389.857 105.367 384.912 104.365 380.4 102.359C375.934 100.309 372.106 97.5286 368.916 94.0195L368.369 104ZM394.277 95.25C398.971 95.25 403.164 94.1562 406.855 91.9688C410.592 89.7357 413.532 86.7051 415.674 82.877C417.861 79.0488 418.955 74.7194 418.955 69.8887C418.955 65.0124 417.861 60.6602 415.674 56.832C413.532 52.9583 410.592 49.9049 406.855 47.6719C403.164 45.4388 398.971 44.3223 394.277 44.3223C389.811 44.3223 385.755 45.3477 382.109 47.3984C378.509 49.4492 375.592 52.252 373.359 55.8066C371.172 59.3613 369.919 63.3945 369.6 67.9062V71.666C369.919 76.1777 371.172 80.2109 373.359 83.7656C375.547 87.3203 378.441 90.123 382.041 92.1738C385.687 94.2246 389.766 95.25 394.277 95.25ZM501.328 104H491.689L490.938 94.9766C488.431 98.2122 485.241 100.764 481.367 102.633C477.493 104.456 473.164 105.367 468.379 105.367C463.457 105.367 459.059 104.41 455.186 102.496C451.312 100.536 448.258 97.8704 446.025 94.498C443.838 91.1257 442.744 87.2975 442.744 83.0137C442.744 78.502 443.929 74.5371 446.299 71.1191C448.714 67.6556 451.973 64.944 456.074 62.9844C460.221 61.0247 464.915 60.0449 470.156 60.0449C473.574 60.0449 477.061 60.4779 480.615 61.3438C484.17 62.1641 487.337 63.3034 490.117 64.7617V61.8906C490.117 58.2448 489.206 55.1458 487.383 52.5938C485.56 49.9961 483.122 48.0137 480.068 46.6465C477.015 45.2337 473.643 44.5273 469.951 44.5273C466.761 44.5273 463.503 45.1198 460.176 46.3047C456.849 47.444 453.659 49.2214 450.605 51.6367L446.914 41.998C450.879 39.446 455.049 37.5319 459.424 36.2559C463.799 34.9342 468.128 34.2734 472.412 34.2734C478.337 34.2734 483.441 35.4811 487.725 37.8965C492.054 40.2663 495.404 43.6615 497.773 48.082C500.143 52.457 501.328 57.6523 501.328 63.668V104ZM470.361 95.1133C473.87 95.1133 477.083 94.3841 480 92.9258C482.917 91.4674 485.286 89.3711 487.109 86.6367C488.932 83.8568 489.935 80.5755 490.117 76.793V75.6309C487.611 73.6712 484.785 72.1673 481.641 71.1191C478.542 70.0254 475.374 69.4785 472.139 69.4785C467.08 69.4785 462.842 70.709 459.424 73.1699C456.051 75.6309 454.365 78.7526 454.365 82.5352C454.365 84.9049 455.049 87.0469 456.416 88.9609C457.829 90.875 459.743 92.3789 462.158 93.4727C464.574 94.5664 467.308 95.1133 470.361 95.1133ZM532.432 104H521.221V35.6406H531.064L531.543 49.1758C533.913 44.4818 537.24 40.8359 541.523 38.2383C545.853 35.5951 550.82 34.2734 556.426 34.2734C557.656 34.2734 558.91 34.3418 560.186 34.4785C561.462 34.6152 562.738 34.8203 564.014 35.0938L562.646 45.2109C560.14 44.6185 557.656 44.3223 555.195 44.3223C550.729 44.3223 546.764 45.416 543.301 47.6035C539.883 49.791 537.217 52.7988 535.303 56.627C533.389 60.4551 532.432 64.8529 532.432 69.8203V104ZM572.627 105.367C570.622 105.367 568.981 104.752 567.705 103.521C566.475 102.245 565.859 100.605 565.859 98.5996C565.859 96.5488 566.475 94.8854 567.705 93.6094C568.981 92.3333 570.622 91.6953 572.627 91.6953C574.632 91.6953 576.273 92.3333 577.549 93.6094C578.87 94.8854 579.531 96.5488 579.531 98.5996C579.531 100.605 578.87 102.245 577.549 103.521C576.273 104.752 574.632 105.367 572.627 105.367ZM653.906 94.1562C650.579 97.7565 646.637 100.536 642.08 102.496C637.523 104.41 632.624 105.367 627.383 105.367C620.592 105.367 614.486 103.818 609.062 100.719C603.685 97.6198 599.424 93.3815 596.279 88.0039C593.18 82.6263 591.631 76.5651 591.631 69.8203C591.631 63.0299 593.18 56.9688 596.279 51.6367C599.424 46.2591 603.685 42.0208 609.062 38.9219C614.486 35.8229 620.592 34.2734 627.383 34.2734C632.578 34.2734 637.454 35.2305 642.012 37.1445C646.569 39.0586 650.511 41.8158 653.838 45.416L647.139 52.457C644.723 49.9049 641.829 47.9453 638.457 46.5781C635.13 45.2109 631.598 44.5273 627.861 44.5273C623.076 44.5273 618.815 45.6211 615.078 47.8086C611.387 49.9505 608.47 52.9128 606.328 56.6953C604.232 60.4779 603.184 64.8301 603.184 69.752C603.184 74.6738 604.232 79.0488 606.328 82.877C608.47 86.7051 611.387 89.7129 615.078 91.9004C618.815 94.0423 623.076 95.1133 627.861 95.1133C631.598 95.1133 635.153 94.4297 638.525 93.0625C641.898 91.6497 644.769 89.6901 647.139 87.1836L653.906 94.1562ZM700.049 105.367C693.258 105.367 687.152 103.818 681.729 100.719C676.305 97.6198 672.021 93.4043 668.877 88.0723C665.778 82.6947 664.229 76.6107 664.229 69.8203C664.229 63.0755 665.778 57.0371 668.877 51.7051C672.021 46.3275 676.305 42.0892 681.729 38.9902C687.152 35.8457 693.258 34.2734 700.049 34.2734C706.839 34.2734 712.923 35.8457 718.301 38.9902C723.678 42.0892 727.917 46.3275 731.016 51.7051C734.115 57.0371 735.664 63.0755 735.664 69.8203C735.664 76.6107 734.115 82.6947 731.016 88.0723C727.917 93.4043 723.678 97.6198 718.301 100.719C712.923 103.818 706.839 105.367 700.049 105.367ZM699.98 95.25C704.583 95.25 708.708 94.1335 712.354 91.9004C715.999 89.6673 718.87 86.6367 720.967 82.8086C723.109 78.9805 724.18 74.6283 724.18 69.752C724.18 64.9668 723.109 60.6602 720.967 56.832C718.87 53.0039 715.999 49.9733 712.354 47.7402C708.708 45.5072 704.583 44.3906 699.98 44.3906C695.378 44.3906 691.23 45.5072 687.539 47.7402C683.893 49.9733 680.999 53.0039 678.857 56.832C676.761 60.6602 675.713 64.9668 675.713 69.752C675.713 74.6283 676.761 78.9805 678.857 82.8086C680.999 86.6367 683.893 89.6673 687.539 91.9004C691.23 94.1335 695.378 95.25 699.98 95.25ZM859.668 104H848.457V67.5645C848.457 60.2272 846.839 54.5306 843.604 50.4746C840.413 46.373 835.902 44.3223 830.068 44.3223C824.189 44.3223 819.564 46.3958 816.191 50.543C812.865 54.6445 811.201 60.3184 811.201 67.5645V104H799.99V67.5645C799.99 60.2272 798.372 54.5306 795.137 50.4746C791.901 46.373 787.367 44.3223 781.533 44.3223C775.654 44.3223 771.029 46.3958 767.656 50.543C764.329 54.6445 762.666 60.3184 762.666 67.5645V104H751.455V35.6406H760.615L761.094 47.877C763.372 43.4108 766.471 40.0384 770.391 37.7598C774.355 35.4355 779.027 34.2734 784.404 34.2734C790.146 34.2734 795.046 35.5723 799.102 38.1699C803.203 40.722 806.257 44.3906 808.262 49.1758C810.495 44.2995 813.662 40.6081 817.764 38.1016C821.911 35.5495 826.855 34.2734 832.598 34.2734C841.12 34.2734 847.751 36.985 852.49 42.4082C857.275 47.7858 859.668 55.3053 859.668 64.9668V104Z" fill="white"/>
</svg>
